<?xml version="1.0" standalone="no"?>
<!DOCTYPE svg PUBLIC "-//W3C//DTD SVG 20010904//EN"
 "http://www.w3.org/TR/2001/REC-SVG-20010904/DTD/svg10.dtd">
<svg version="1.0" xmlns="http://www.w3.org/2000/svg"
 width="700.000000pt" height="700.000000pt" viewBox="0 0 700.000000 700.000000"
 preserveAspectRatio="xMidYMid meet">
<metadata>
Created by potrace 1.14, written by Peter Selinger 2001-2017
</metadata>
<g transform="translate(0.000000,700.000000) scale(0.100000,-0.100000)"
fill="#000000" stroke="none">
<path d="M3278 6995 c-2 -1 -41 -5 -88 -9 -47 -4 -96 -8 -110 -10 -14 -2 -46
-7 -71 -10 -25 -4 -57 -9 -70 -11 -13 -2 -42 -6 -63 -10 -176 -26 -558 -137
-703 -205 -24 -11 -46 -20 -50 -20 -7 0 -190 -86 -213 -100 -8 -5 -31 -17 -50
-27 -60 -29 -280 -163 -344 -209 -34 -24 -72 -52 -85 -61 -36 -26 -170 -132
-205 -162 -630 -550 -1021 -1232 -1172 -2041 -2 -14 -6 -36 -9 -50 -3 -14 -7
-47 -10 -75 -4 -27 -8 -57 -10 -65 -18 -71 -27 -580 -12 -725 3 -38 9 -97 12
-130 4 -33 11 -87 17 -120 5 -33 12 -71 14 -85 22 -131 91 -394 143 -539 79
-220 197 -467 307 -644 27 -43 54 -86 59 -96 27 -46 135 -194 208 -284 351
-435 812 -791 1312 -1012 298 -132 692 -239 990 -270 33 -4 71 -9 85 -11 46
-10 554 -13 635 -4 168 17 201 21 250 30 28 5 61 11 75 14 83 14 117 21 222
47 113 27 341 98 403 124 17 7 62 25 100 40 204 82 521 260 707 397 297 218
573 496 779 783 43 61 83 115 88 121 47 57 220 378 301 559 69 153 142 379
189 580 20 87 24 111 37 185 4 19 8 42 9 50 2 8 6 40 10 70 4 30 9 66 11 80
26 155 25 636 -1 830 -2 14 -6 47 -9 74 -4 27 -9 59 -11 70 -6 27 -14 71 -21
118 -3 20 -21 97 -40 170 -19 73 -36 142 -39 152 -10 42 -50 157 -92 266 -280
722 -814 1349 -1490 1749 -310 183 -685 329 -1032 403 -131 27 -130 27 -176
33 -22 4 -51 8 -65 10 -14 2 -50 7 -80 10 -30 4 -73 9 -95 12 -45 5 -541 13
-547 8z m442 -29 c63 -4 126 -8 140 -10 14 -3 49 -7 78 -10 84 -10 121 -16
227 -38 55 -11 111 -22 125 -24 69 -12 454 -135 514 -165 22 -10 43 -19 47
-19 5 0 69 -30 144 -66 485 -234 896 -563 1233 -987 144 -181 297 -425 391
-622 29 -60 56 -117 61 -126 4 -8 20 -45 34 -82 14 -37 37 -96 51 -131 14 -36
25 -69 25 -75 0 -6 5 -19 10 -29 28 -47 121 -443 136 -577 3 -33 8 -62 9 -65
2 -3 6 -45 10 -95 4 -49 9 -99 11 -110 7 -34 7 -385 0 -475 -8 -94 -29 -271
-41 -340 -3 -14 -7 -39 -10 -56 -11 -69 -65 -296 -75 -314 -6 -11 -8 -20 -6
-20 8 0 -93 -286 -134 -380 -141 -320 -319 -617 -505 -839 -117 -141 -238
-267 -379 -396 -90 -82 -116 -102 -116 -88 -1 4 -3 46 -5 93 -18 327 -75 553
-146 575 -11 4 -82 36 -157 72 -181 86 -310 148 -402 190 -41 19 -118 56 -170
80 -52 25 -131 62 -175 83 -44 21 -138 65 -209 99 -71 33 -132 61 -137 61 -4
0 -11 -12 -16 -26 -8 -24 -12 -18 -50 72 -83 197 -173 417 -170 419 1 1 29 16
62 35 181 100 360 290 459 488 31 62 82 210 91 267 20 125 23 161 20 270 -5
180 -48 342 -136 504 l-39 73 25 63 c28 71 35 161 16 218 -41 122 -246 415
-327 467 -53 33 -74 30 -109 -16 -36 -47 -67 -45 -116 6 -22 22 -42 52 -45 66
-6 23 -9 24 -53 18 -25 -4 -94 -16 -153 -28 l-108 -22 -52 22 c-148 64 -377
77 -528 30 -178 -55 -300 -133 -460 -295 -240 -243 -331 -459 -324 -777 1 -65
4 -132 7 -149 3 -16 8 -50 12 -75 18 -122 80 -328 149 -493 117 -283 354 -687
412 -701 19 -5 24 -13 25 -39 0 -17 2 -45 4 -62 19 -138 17 -147 -34 -262 -30
-66 -54 -107 -61 -105 -12 3 -147 -37 -195 -58 -11 -4 -76 -29 -145 -56 -69
-26 -168 -67 -220 -92 -52 -24 -97 -44 -100 -44 -3 0 -16 -8 -30 -17 -14 -10
-45 -28 -70 -40 -120 -61 -322 -210 -390 -288 -92 -104 -137 -206 -145 -325
-2 -35 -7 -92 -10 -128 -3 -36 -7 -92 -10 -125 -10 -118 -16 -180 -20 -183 -5
-5 -124 88 -235 183 -298 257 -543 554 -747 905 -47 81 -173 333 -173 345 0 4
-11 30 -23 58 -13 29 -36 88 -51 132 -16 44 -32 89 -37 100 -11 24 -85 297
-93 340 -3 17 -12 68 -21 115 -9 47 -18 101 -21 120 -2 19 -6 44 -9 55 -2 11
-7 56 -11 100 -3 44 -8 89 -10 100 -5 26 -5 435 0 499 9 100 17 182 21 206 2
14 7 45 10 70 3 25 12 79 20 120 9 41 17 86 20 99 50 261 196 650 346 924 464
844 1273 1473 2189 1702 88 22 111 27 180 41 14 2 48 9 75 14 61 12 93 17 165
25 30 4 66 9 80 11 14 2 90 6 170 10 80 4 146 7 147 8 3 3 103 -1 263 -8z"/>
</g>
</svg>
